PathFileType	4	(X/Y/Z)	s08c0303.trc
DataRate	CameraRate	NumFrames	NumMarkers	Units	OrigDataRate	OrigDataStartFrame	OrigNumFrames
200	200	4	50	mm	200	500	2000
Frame#	Time	racr			lacr			c7			jug			rlel			rdr			llel			ldr			s2			lic			ric			lasi			rasi			rpsi			lpsi			rgt			lgt			rth1			rth2			rth3			rth4			rlfc			rmfc			rsh1			rsh2			rsh3			rsh4			rlmal			rmmal			rcal			rtoe			rmt5			lth1			lth2			lth4			lth3			llfc			lmfc			llmal			lmmal			lcal			lmt5			lsh1			lsh2			lsh3			lsh4			ltoe			SBIKE			LBIKE			RBIKE			
		X1	Y1	Z1	X2	Y2	Z2	X3	Y3	Z3	X4	Y4	Z4	X5	Y5	Z5	X6	Y6	Z6	X7	Y7	Z7	X8	Y8	Z8	X9	Y9	Z9	X10	Y10	Z10	X11	Y11	Z11	X12	Y12	Z12	X13	Y13	Z13	X14	Y14	Z14	X15	Y15	Z15	X16	Y16	Z16	X17	Y17	Z17	X18	Y18	Z18	X19	Y19	Z19	X20	Y20	Z20	X21	Y21	Z21	X22	Y22	Z22	X23	Y23	Z23	X24	Y24	Z24	X25	Y25	Z25	X26	Y26	Z26	X27	Y27	Z27	X28	Y28	Z28	X29	Y29	Z29	X30	Y30	Z30	X31	Y31	Z31	X32	Y32	Z32	X33	Y33	Z33	X34	Y34	Z34	X35	Y35	Z35	X36	Y36	Z36	X37	Y37	Z37	X38	Y38	Z38	X39	Y39	Z39	X40	Y40	Z40	X41	Y41	Z41	X42	Y42	Z42	X43	Y43	Z43	X44	Y44	Z44	X45	Y45	Z45	X46	Y46	Z46	X47	Y47	Z47	X48	Y48	Z48	X49	Y49	Z49	X50	Y50	Z50	
500	2.5000	791.536372	1308.939461	-9.654945	795.523667	1352.445460	-345.473895	774.087999	1393.244568	-170.436548	744.345839	1240.771714	-202.746987	611.004161	1083.180275	76.049017	776.658018	900.968905	-51.773435	676.088908	1127.998785	-488.970349	787.978740	885.178992	-423.086401	204.362341	1229.995347	-250.787600	386.650286	1204.433227	-378.136919	345.899920	1202.687477	-65.935423	383.926277	1144.859114	-339.410427	372.093457	1154.028272	-94.502804	238.559933	1263.578970	-195.272684	248.505843	1268.340489	-291.408339	258.086834	1113.012072	-47.339665	311.795584	1094.668677	-424.521350	353.919350	965.330927	-34.095516	419.342400	905.305521	-31.847849	446.386971	823.114721	-40.973674	450.386942	925.111307	-36.025638	507.854895	716.903939	-54.646368	502.732844	717.279503	-176.323018	432.463475	607.647283	-29.901448	419.765608	520.313225	-50.582612	365.726719	453.619775	-58.523218	447.484955	514.437664	-79.215618	309.942669	348.532929	-69.848737	0.000000	0.000000	-0.000000	227.824195	318.723706	-117.226476	526.116949	315.028036	-102.393969	434.769885	280.660678	-40.133166	376.529067	978.794098	-421.181328	436.440686	915.674604	-411.606000	463.612864	931.089995	-392.729333	458.905024	829.752730	-416.815025	477.519064	704.192810	-405.012159	459.512431	680.928462	-295.718025	117.844860	488.909813	-406.193880	151.328219	475.803002	-322.503904	68.426400	527.149323	-363.342710	119.382893	318.030312	-419.876199	373.443443	629.421793	-427.054510	312.992339	572.784724	-411.985673	227.920780	545.597374	-412.049425	325.704761	554.648885	-375.959599	186.440722	262.793145	-350.668351	-200.330674	919.228878	-228.634413	-10.240734	79.912546	-426.942416	-10.627879	79.730237	-28.773010	
501	2.5050	794.410955	1310.012627	-12.250266	793.704424	1353.637769	-348.397684	773.950701	1394.455821	-172.744711	745.467356	1241.545839	-204.471429	615.622354	1084.679443	78.966576	776.882514	900.356230	-51.280695	674.656003	1127.753210	-490.027972	787.868549	885.203494	-423.284803	204.325543	1226.535195	-248.404416	385.826967	1204.028826	-377.282696	347.459402	1196.865323	-65.383576	383.823352	1143.834314	-339.113889	373.531519	1149.500567	-94.591869	238.841899	1259.369063	-192.366354	247.745465	1265.613553	-288.404814	259.096121	1106.457285	-47.097827	311.814520	1094.118273	-424.490056	353.647767	958.132168	-34.883700	418.198236	897.174994	-33.212139	444.286867	814.779008	-42.859436	449.541811	916.689518	-37.121202	504.410359	708.508471	-56.696641	498.942765	708.630923	-178.268691	429.296373	598.888255	-31.253482	417.102476	511.439178	-51.456138	363.465251	444.434005	-59.040059	444.822057	505.555609	-79.993506	307.958977	338.885471	-69.728764	0.000000	0.000000	-0.000000	225.953989	308.836352	-117.180990	524.252306	306.007279	-101.355665	432.695504	270.665778	-40.237314	378.492714	979.188924	-422.303667	439.677889	917.241867	-412.794013	466.647374	933.240094	-394.252302	463.791208	831.747590	-417.765777	484.622852	707.187979	-406.134311	466.891892	683.656239	-296.787506	121.790886	497.908671	-406.520539	155.547566	484.585208	-322.469042	72.593273	536.704432	-363.724588	121.800174	327.209649	-419.978867	380.697567	635.552430	-430.571840	318.107218	578.286512	-412.581320	232.654274	552.779527	-412.517325	330.856034	560.362453	-377.244223	188.422824	271.511883	-350.613667	-200.443168	919.106864	-229.113295	-10.202836	79.879910	-426.926182	-10.587921	79.878126	-28.654205	
502	2.5100	797.345239	1311.612501	-15.042833	791.823322	1355.026423	-351.658368	773.744136	1396.020988	-175.287978	746.692771	1242.636970	-206.331749	620.786667	1086.537302	81.830187	777.257154	899.785074	-50.778609	673.111281	1127.426724	-490.978147	787.818955	885.264933	-423.407253	204.059355	1223.068226	-245.570629	384.845058	1203.759793	-376.384696	349.403860	1191.453467	-64.650039	383.526719	1143.042090	-338.753700	375.068727	1144.955529	-94.710661	239.024856	1255.410759	-189.502780	246.952778	1263.069346	-285.357777	260.329121	1099.983399	-46.784954	311.557390	1093.573455	-424.372718	353.397540	951.076054	-35.596520	417.136330	888.901313	-34.505006	444.144573	807.275300	-42.962141	448.689978	908.224303	-38.272690	500.659263	700.199851	-58.837385	494.343160	699.711721	-180.056410	425.672960	589.887050	-32.694007	414.085424	502.260810	-52.606144	360.619151	435.223380	-59.427739	441.662262	496.660237	-80.914823	305.411333	329.418865	-69.458730	0.000000	0.000000	-0.000000	223.155171	299.535949	-116.757217	521.313662	294.749000	-103.483098	430.040940	260.925582	-40.288671	380.175914	979.812398	-423.514464	442.599508	919.024293	-414.062524	469.500772	935.638703	-395.980092	468.420950	833.916066	-418.772461	491.610950	710.551387	-407.239853	474.146778	686.761747	-297.836431	126.038593	506.953297	-406.848308	159.747732	493.203348	-322.804504	76.989950	546.321484	-364.226892	124.867452	336.286825	-419.930692	387.034396	640.278406	-431.450855	323.480503	584.087312	-413.274056	236.142797	560.820932	-414.495031	336.050538	565.779238	-377.964683	191.015782	280.383901	-350.451944	-200.324591	919.175800	-228.758749	-10.164332	79.884073	-426.912541	-10.558685	79.885242	-28.641392	
503	2.5150	800.173843	1313.815531	-18.058929	790.083414	1356.574906	-356.005378	773.406615	1397.916846	-177.995409	748.165869	1244.025701	-208.417121	626.477154	1088.943369	84.543155	777.689085	899.296350	-50.309670	671.335461	1126.839068	-491.891104	787.779703	885.344564	-423.574200	203.794231	1219.675801	-242.397978	383.707477	1203.676270	-375.401413	351.761822	1186.069766	-63.742386	383.138094	1142.339435	-338.367295	376.707736	1140.405814	-94.864128	239.393712	1251.096495	-186.385622	246.130255	1260.491313	-281.878734	261.641262	1093.468361	-46.518833	310.592564	1092.767861	-423.048759	353.222650	944.076062	-36.335444	415.953861	880.883249	-35.730395	439.938803	798.437241	-45.516389	447.763633	899.730119	-39.451428	496.352742	691.809653	-61.072017	489.520317	690.907385	-181.889322	421.744132	580.998021	-34.135374	410.619981	493.284014	-53.554041	357.445249	426.068163	-59.876773	437.988674	487.064289	-82.798243	302.446793	319.980742	-69.052971	0.000000	0.000000	-0.000000	219.881624	290.237567	-116.052318	518.120630	284.883492	-103.755655	426.863909	251.379759	-40.324241	381.990078	980.995789	-425.504838	445.207739	920.841965	-415.036095	472.140645	938.352333	-398.064479	472.981977	836.571910	-420.189819	498.389125	714.206625	-408.215776	481.261471	690.264936	-298.873471	130.809209	515.862881	-407.138828	164.248388	501.723098	-322.942126	81.724907	555.581946	-364.418241	128.209689	345.680370	-419.857133	393.407652	645.089449	-432.152409	328.933924	590.037201	-413.730096	241.266092	568.079108	-414.831715	341.376721	571.419988	-378.614553	194.208299	289.122944	-350.220480	-200.299527	919.163476	-228.720733	-10.144627	79.933583	-426.917799	-10.523889	79.892543	-28.602214	
